<?xml version="1.0" encoding="UTF-8"?><svg version="1.1" id="Layer_1" xmlns="http://www.w3.org/2000/svg" xmlns:xlink="http://www.w3.org/1999/xlink" x="0px" y="0px" width="400px" height="326px" viewBox="0 0 400 326" enable-background="new 0 0 400 326" xml:space="preserve">
<polygon fill="#D9E021" points="294.412,149.934 203.928,283.993 80.005,200.451 170.489,66.392 "/>
<rect x="1.035" y="60.319" transform="matrix(0.908 0.4189 -0.4189 0.908 26.9791 4.0794)" fill="#A1C3FC" width="6.328" height="6.326"/>
<g>
	<path fill="#151A4F" d="M105.663,205.681l0.029,0.058c0.011-0.03,0.024-0.059,0.036-0.089L105.663,205.681z"/>
	<path fill="#151A4F" d="M139.356,163.431c-0.356,0.236-0.71,0.474-1.062,0.715l1.137-0.562L139.356,163.431z"/>
	<path fill="#151A4F" d="M158.01,154.376l-0.146-0.296c-2.364,0.859-4.672,1.83-6.936,2.881l0.368,0.743L158.01,154.376z"/>
	<path fill="#151A4F" d="M115.226,187.3c-1.404,2.067-2.708,4.206-3.936,6.394l5.705-2.827L115.226,187.3z"/>
	<polygon fill="#151A4F" points="128.864,184.989 125.533,178.277 132.249,174.949 135.579,181.66 	"/>
	<polygon fill="#151A4F" points="147.439,175.781 144.108,169.07 150.824,165.742 154.154,172.453 	"/>
	<polygon fill="#151A4F" points="166.017,166.575 162.687,159.863 169.402,156.535 172.733,163.246 	"/>
	<path fill="#151A4F" d="M184.591,157.365l6.715-3.328l-2.572-5.184c-0.311-0.003-0.617-0.024-0.93-0.024
		c-1.01,0-2.013,0.042-3.015,0.077l-3.528,1.748L184.591,157.365z"/>
	<path fill="#151A4F" d="M115.709,209.063l-3.33-6.711l-6.651,3.297c-0.011,0.03-0.024,0.059-0.036,0.089l3.301,6.653
		L115.709,209.063z"/>
	<polygon fill="#151A4F" points="127.574,203.187 124.244,196.476 130.959,193.147 134.289,199.859 	"/>
	<polygon fill="#151A4F" points="146.153,193.98 142.823,187.269 149.538,183.94 152.869,190.652 	"/>
	<polygon fill="#151A4F" points="164.732,184.772 161.401,178.061 168.117,174.732 171.447,181.444 	"/>
	<polygon fill="#151A4F" points="183.306,175.565 179.976,168.854 186.691,165.525 190.022,172.237 	"/>
	<polygon fill="#151A4F" points="108.517,220.428 111.847,227.139 105.132,230.467 101.802,223.756 	"/>
	<polygon fill="#151A4F" points="123.718,221.264 120.388,214.553 127.103,211.225 130.433,217.936 	"/>
	<polygon fill="#151A4F" points="142.293,212.055 138.963,205.344 145.678,202.015 149.009,208.727 	"/>
	<polygon fill="#151A4F" points="160.874,202.849 157.543,196.138 164.259,192.81 167.589,199.521 	"/>
	<polygon fill="#151A4F" points="179.449,193.641 176.118,186.929 182.834,183.601 186.164,190.312 	"/>
	<polygon fill="#151A4F" points="198.028,184.434 194.697,177.722 201.413,174.394 204.743,181.105 	"/>
	<polygon fill="#151A4F" points="107.227,238.624 110.557,245.335 103.842,248.664 100.512,241.952 	"/>
	<polygon fill="#151A4F" points="129.14,236.127 122.425,239.456 119.095,232.744 125.81,229.416 	"/>
	<polygon fill="#151A4F" points="141.009,230.254 137.679,223.543 144.394,220.215 147.724,226.926 	"/>
	<polygon fill="#151A4F" points="159.583,221.047 156.252,214.336 162.968,211.007 166.298,217.719 	"/>
	<polygon fill="#151A4F" points="178.16,211.838 174.83,205.126 181.545,201.798 184.876,208.509 	"/>
	<polygon fill="#151A4F" points="196.737,202.631 193.406,195.919 200.122,192.591 203.452,199.302 	"/>
	<path fill="#151A4F" d="M103.373,256.704l-0.757,0.375c0.6,2.482,1.308,4.918,2.114,7.312l1.972-0.978L103.373,256.704z"/>
	<polygon fill="#151A4F" points="121.947,247.493 125.278,254.204 118.562,257.532 115.232,250.821 	"/>
	<polygon fill="#151A4F" points="140.524,238.286 143.855,244.997 137.139,248.326 133.809,241.614 	"/>
	<polygon fill="#151A4F" points="159.102,229.08 162.433,235.791 155.717,239.119 152.387,232.408 	"/>
	<polygon fill="#151A4F" points="181.015,226.583 174.3,229.911 170.97,223.2 177.685,219.871 	"/>
	<polygon fill="#151A4F" points="189.543,214 196.258,210.672 199.589,217.383 192.873,220.712 	"/>
	<polygon fill="#151A4F" points="211.457,211.501 208.127,204.79 214.842,201.462 218.172,208.173 	"/>
	<polygon fill="#151A4F" points="120.656,265.688 123.986,272.4 117.271,275.728 113.941,269.017 	"/>
	<polygon fill="#151A4F" points="139.236,256.483 142.566,263.195 135.851,266.523 132.52,259.812 	"/>
	<polygon fill="#151A4F" points="161.15,253.986 154.434,257.314 151.104,250.603 157.819,247.275 	"/>
	<polygon fill="#151A4F" points="169.675,241.407 176.391,238.079 179.721,244.79 173.006,248.118 	"/>
	<polygon fill="#151A4F" points="198.306,235.568 191.59,238.897 188.26,232.185 194.975,228.857 	"/>
	<polygon fill="#151A4F" points="210.172,229.7 206.842,222.988 213.557,219.66 216.887,226.371 	"/>
	<path fill="#151A4F" d="M116.026,286.697c1.378,1.963,2.821,3.876,4.353,5.715l-3.135-6.319L116.026,286.697z"/>
	<polygon fill="#151A4F" points="135.817,276.885 139.147,283.596 132.432,286.925 129.102,280.213 	"/>
	<polygon fill="#151A4F" points="154.392,267.676 157.722,274.387 151.007,277.715 147.677,271.004 	"/>
	<polygon fill="#151A4F" points="172.972,258.471 176.302,265.182 169.587,268.511 166.257,261.799 	"/>
	<polygon fill="#151A4F" points="194.887,255.97 188.171,259.298 184.841,252.587 191.556,249.258 	"/>
	<polygon fill="#151A4F" points="213.464,246.766 206.748,250.094 203.418,243.383 210.133,240.054 	"/>
	<polygon fill="#151A4F" points="225.325,240.892 221.995,234.181 228.71,230.852 232.041,237.564 	"/>
	<path fill="#151A4F" d="M134.533,295.085l-6.715,3.328l1.711,3.448c0.986,0.877,1.989,1.736,3.015,2.57l5.318-2.635
		L134.533,295.085z"/>
	<polygon fill="#151A4F" points="153.104,285.873 156.434,292.584 149.719,295.913 146.388,289.201 	"/>
	<polygon fill="#151A4F" points="171.683,276.668 175.013,283.379 168.298,286.707 164.968,279.996 	"/>
	<polygon fill="#151A4F" points="183.546,270.798 190.261,267.469 193.591,274.181 186.876,277.509 	"/>
	<polygon fill="#151A4F" points="202.125,261.588 208.841,258.26 212.171,264.971 205.456,268.299 	"/>
	<polygon fill="#151A4F" points="224.043,259.091 220.712,252.38 227.428,249.051 230.758,255.763 	"/>
	<path fill="#151A4F" d="M149.251,303.954l-6.715,3.328l2.907,5.856c0.34,0.187,0.678,0.375,1.021,0.558l6.119-3.032
		L149.251,303.954z"/>
	<polygon fill="#151A4F" points="167.825,294.744 171.156,301.455 164.44,304.783 161.11,298.072 	"/>
	<polygon fill="#151A4F" points="186.399,285.534 189.73,292.245 183.014,295.574 179.684,288.862 	"/>
	<polygon fill="#151A4F" points="204.981,276.33 208.312,283.041 201.596,286.37 198.266,279.658 	"/>
	<polygon fill="#151A4F" points="223.554,267.122 226.884,273.833 220.169,277.162 216.839,270.45 	"/>
	<polygon fill="#151A4F" points="242.131,257.914 245.461,264.626 238.746,267.954 235.416,261.242 	"/>
	<path fill="#151A4F" d="M166.54,312.944l-6.715,3.328l1.901,3.83c1.526,0.475,3.075,0.9,4.635,1.291l3.508-1.739L166.54,312.944z"/>
	<polygon fill="#151A4F" points="185.114,303.733 188.444,310.445 181.729,313.773 178.398,307.062 	"/>
	<polygon fill="#151A4F" points="203.691,294.526 207.021,301.238 200.306,304.566 196.976,297.855 	"/>
	<polygon fill="#151A4F" points="222.264,285.317 225.595,292.029 218.879,295.357 215.549,288.646 	"/>
	<polygon fill="#151A4F" points="240.845,276.114 244.176,282.825 237.46,286.153 234.13,279.442 	"/>
	<path fill="#151A4F" d="M177.909,323.473c1.444,0.162,2.898,0.288,4.363,0.379l-1.012-2.04L177.909,323.473z"/>
	<polygon fill="#151A4F" points="199.832,312.603 203.162,319.315 196.447,322.643 193.117,315.932 	"/>
	<polygon fill="#151A4F" points="218.41,303.396 221.74,310.108 215.025,313.436 211.694,306.725 	"/>
	<polygon fill="#151A4F" points="236.988,294.189 240.318,300.9 233.602,304.229 230.272,297.517 	"/>
	<path fill="#151A4F" d="M255.569,284.985l-6.715,3.328l3.33,6.712l1.374-0.681c1.44-1.633,2.829-3.314,4.148-5.053L255.569,284.985
		z"/>
</g>
<g>
	<polygon fill="#A1C3FC" points="316.193,49.62 305.879,54.904 318.902,54.904 	"/>
	<polygon fill="#A1C3FC" points="269.802,73.382 328.378,73.382 323.391,63.657 288.791,63.657 	"/>
	<polygon fill="#A1C3FC" points="233.726,91.86 337.853,91.86 332.866,82.135 252.713,82.135 	"/>
	<polygon fill="#A1C3FC" points="238.607,110.338 347.33,110.338 342.342,100.613 233.62,100.613 	"/>
	<polygon fill="#A1C3FC" points="248.084,128.816 356.805,128.816 351.818,119.091 243.097,119.091 	"/>
	<polygon fill="#A1C3FC" points="257.559,147.294 335.743,147.294 354.73,137.569 252.572,137.569 	"/>
	<polygon fill="#A1C3FC" points="267.035,165.771 299.667,165.771 318.655,156.047 262.048,156.047 	"/>
	<polygon fill="#A1C3FC" points="273.823,179.009 282.579,174.524 271.523,174.524 	"/>
</g>
<path fill="#151A4F" d="M247.896,5.993c3.471-0.803,7.033-1.611,10.566-1.158c5.284,0.678,9.791,4.068,13.778,7.601
	c4.892,4.336,9.455,9.109,13.029,14.581c8.494,13.013,10.859,29.173,10.329,44.701c-0.53,15.527-3.721,30.83-5.417,46.275
	c-1.758,16.002-1.91,32.181-0.45,48.212c-35.705-5.122-72.306-3.966-107.616,3.402c23.314-33.859,37.04-76.207,28.828-116.482
	c-2.436-11.949-6.207-26.044,2.034-35.035c4.515-4.926,11.443-6.666,17.952-8.172C236.585,8.61,242.24,7.302,247.896,5.993z"/>
<path fill="#F2A19C" d="M249.869,69.993c-0.34,0.045-0.69,0.095-0.986,0.296c-0.925,0.628-0.811,2.226-0.591,3.464
	c3.95,22.197,2.357,45.743-4.527,66.905c12.896-9.588,29.981-0.038,44.852-3.845c-4.263-9.79-3.288-21.452-3.239-32.475
	c0.058-12.976,2.79-30.425,0.012-42.976C274.922,62.752,260.337,68.605,249.869,69.993z"/>
<path fill="#FFBEB6" d="M224.748,31.036c-1.092,11.345,1.567,21.186,5.906,31.728c5.042,12.25,14.233,23.449,26.77,27.748
	c12.537,4.299,25.485,2.673,31.619-9.071c2.531-4.846,3.745-12.787,3.653-18.251c-0.252-14.993-3.798-30.664-14.755-40.907
	c-6.501-6.078-13.269-14.681-22.137-15.44c-8.869-0.759-21.359,3.198-26.437,10.505C225.209,23.329,225.447,23.786,224.748,31.036z"/>
<path fill="#FFFFFF" d="M276.725,68.692c-1.774,1.979-4.346,3.046-6.902,3.776c-3.96,1.129-8.183,1.595-12.207,0.722
	s-7.831-3.196-9.953-6.723c2.43,0.38,4.913,0.425,7.356,0.133c11.769-1.409,21.199-10.283,28.603-19.535
	c-0.423,4.823-0.981,7.952-2.175,12.621C280.753,62.396,278.591,66.607,276.725,68.692z"/>
<path fill="#E94A47" d="M213.281,50.259c12.122-19.619,32.983-33.615,55.742-37.396c3.842,3.45,7.683,6.901,11.525,10.35
	c-25.684,3.526-46.99,21.843-62.903,42.3c-3.192-4.5-6.5-10.315-3.88-15.171C212.645,58.046,216.057,42.989,213.281,50.259z"/>
<path fill="#23286B" d="M219.327,181.542c9.967-41.676,8.399-49.767,8.168-92.616c-0.052-9.533,4.109-47.912,10.958-59.547
	c9.605-16.317,18.248-19.024,27.251-22.173c-21.231-17.796-47.511,1.624-53.729,12.602s-7.088,24.07-8.018,36.653
	c-3.075,41.605-8.35,83.049-15.796,124.098C198.556,180.248,208.97,180.578,219.327,181.542z"/>
<g>
	<path fill="#23286B" d="M233.978,77.295c-0.001,0-0.003,0-0.004,0c-0.378-0.003-0.683-0.313-0.681-0.689
		c0.096-14.689,3.155-28.514,9.917-44.824c4.265-10.285,13.617-21.321,19.129-24.318c0.332-0.179,0.748-0.057,0.929,0.274
		c0.181,0.332,0.058,0.749-0.276,0.93c-5.202,2.828-14.424,13.771-18.517,23.64c-6.691,16.138-9.717,29.804-9.813,44.307
		C234.66,76.991,234.355,77.295,233.978,77.295z"/>
</g>
<g>
	<path fill="#23286B" d="M238.874,71.187c-0.03,0-0.061-0.001-0.092-0.007c-0.376-0.049-0.638-0.394-0.588-0.769
		c3.012-22.44,12.941-46.551,25.912-62.929c0.236-0.293,0.666-0.347,0.963-0.111c0.296,0.234,0.347,0.664,0.112,0.961
		c-12.829,16.194-22.649,40.051-25.629,62.259C239.507,70.936,239.212,71.187,238.874,71.187z"/>
</g>
<g>
	<path fill="#23286B" d="M180.142,178.817c-0.013,0-0.029,0-0.042-0.001c-0.378-0.025-0.665-0.349-0.641-0.726
		c2.688-43.24,8.564-80.717,19.647-125.318l0.263-1.062c2.655-10.708,6.665-26.891,14.39-34.083
		c0.277-0.257,0.712-0.243,0.968,0.034c0.257,0.277,0.243,0.711-0.034,0.968c-7.427,6.915-11.38,22.859-13.994,33.409l-0.263,1.062
		c-11.063,44.517-16.929,81.922-19.61,125.074C180.803,178.538,180.502,178.817,180.142,178.817z"/>
</g>
<path fill="#FFFFFF" d="M294.829,113.912c-0.402,7.65-0.806,15.297-1.209,22.947c-0.017,0.326-0.067,0.707-0.353,0.865
	c-0.179,0.099-0.398,0.074-0.603,0.046c-7.978-1.063-12.607,36.132-20.655,36.026c-8.521-0.112-20.464-37.469-28.931-36.51
	c0.021-4.617,0.04-9.234,0.061-13.852c0.007-1.642-0.177-5.943-0.177-5.943s2.125-2.037,3.627-2.727
	c5.153-2.369,10.367,5.972,15.775,4.258c2.895-0.917,4.468-4.467,7.45-5.042c4.19-0.809,6.909,4.575,10.984,5.839
	c2.511,0.778,5.255-0.136,7.503-1.495C290.549,116.965,292.517,115.165,294.829,113.912z"/>
<linearGradient id="SVGID_1_" gradientUnits="userSpaceOnUse" x1="1239.4564" y1="1675.4294" x2="2068.4932" y2="1675.4294" gradientTransform="matrix(0.2543 0 0 0.2543 -148.3943 -199.0443)">
	<stop offset="0" style="stop-color:#428DFC"/>
	<stop offset="1" style="stop-color:#1D72D8"/>
</linearGradient>
<path fill="url(#SVGID_1_)" d="M273.152,166.322c6.946-11.588,13.891-23.176,20.838-34.764c15.049,3.374,29.637,8.795,43.235,16.067
	c7.128,3.811,14.078,8.205,19.52,14.179c7.97,8.748,12.163,20.262,15.156,31.708c8.745,33.452,6.951,87.317-1.87,120.748
	c-10.995-1.805-20.656-3.722-31.714-2.348c-12.435,1.547-27.438,4.425-39.937,3.522c-44.613-3.221-71.89-4.464-115.113,7.043
	c-1.866-24.722-17.652-65.686-16.396-90.447c1.232-24.268,4.419-49.7,18.661-69.393c12.227-16.906,57.713-29.909,57.713-29.909
	S265.691,157.143,273.152,166.322z"/>
<linearGradient id="SVGID_2_" gradientUnits="userSpaceOnUse" x1="732.0312" y1="1467.5521" x2="1230.5876" y2="1467.5521" gradientTransform="matrix(0.2543 0 0 0.2543 -148.3943 -199.0443)">
	<stop offset="0" style="stop-color:#FFBEB6"/>
	<stop offset="1" style="stop-color:#F2A19C"/>
</linearGradient>
<path fill="url(#SVGID_2_)" d="M115.775,115.663c-3.391-13.494-8.903-14.031-18.833-23.956c-1.604-1.603-3.34-4.121-5.136-2.737
	c-1.753,4.939,10.615,13.346,11.694,24.888c-16.182-9.352-40.269-13.881-54.839-12.91c-5.136,0.342,3.767,4.448,15.409,6.161
	c10.628,1.562,17.121,5.818,26.659,10.738c0.563,1.629-5.806-1.096-7.482-1.497c-15.891-3.811-27.052-6.844-43.975-8.124
	c-4.992,0.594,3.614,9.081,8.191,10.861c11.377,4.422,24.138,7.734,35.515,12.156c-2.985,5.468-32.947-13.011-27.05-5.69
	c10.483,11.778,26.436,18.479,42.189,17.719c2.597-0.124,5.292-0.427,7.724,0.488c2.858,1.076,5.528,3.868,6.342,6.81
	c11.679,42.288,24.503,82.304,34.414,109.17c2.912-4.049,13.319-41.633,17.948-43.493c-8.949-24.223-25.403-36.893-34.043-61.228
	c-3.767-10.609-8.528-18.46-11.642-26.351C118.188,126.98,115.147,113.959,115.775,115.663z"/>
<linearGradient id="SVGID_3_" gradientUnits="userSpaceOnUse" x1="974.3223" y1="1717.0122" x2="1372.5189" y2="1717.0122" gradientTransform="matrix(0.2543 0 0 0.2543 -148.3943 -199.0443)">
	<stop offset="0" style="stop-color:#428DFC"/>
	<stop offset="1" style="stop-color:#1D72D8"/>
</linearGradient>
<path fill="url(#SVGID_3_)" d="M132.006,150.203c19.82,30.483,22.348,43.031,41.068,76.797c9.696,17.49,23.952,40.99,27.395,60.687
	c0.89,5.092-1.839,33.351-5.935,36.505c-3.241,2.496-11.971-1.513-15.313-3.872c-3.342-2.359-5.513-5.994-7.565-9.531
	c-27.505-47.399-51.678-96.732-72.28-147.511C111.161,161.952,122.567,157.383,132.006,150.203z"/>
<circle fill="#D9E021" cx="324.399" cy="62.223" r="6.161"/>
<polygon fill="#E94A47" points="49.499,74.909 33.853,67.69 41.075,52.054 56.721,59.272 "/>
<polygon fill="#1D72D8" points="102.915,52.326 87.269,45.107 94.492,29.471 110.138,36.689 "/>
<g>
	<path fill="#23286B" d="M76.542,59.466c-0.226,0-0.448-0.111-0.578-0.315c-9.991-15.639-30.886-23.248-48.601-17.706
		c-0.364,0.111-0.745-0.087-0.857-0.449c-0.112-0.361,0.087-0.744,0.45-0.859c18.286-5.725,39.853,2.136,50.165,18.276
		c0.203,0.319,0.111,0.742-0.208,0.946C76.796,59.43,76.669,59.466,76.542,59.466z"/>
</g>
<g>
	<path fill="#23286B" d="M4.576,122.202c-0.015,0-0.029,0-0.044-0.001c-0.377-0.025-0.665-0.349-0.64-0.726
		c0.876-13.757,13.246-26.032,27.015-26.807c0.38-0.036,0.702,0.267,0.722,0.645c0.022,0.376-0.268,0.701-0.645,0.722
		c-13.111,0.739-24.891,12.428-25.726,25.525C5.236,121.925,4.935,122.202,4.576,122.202z"/>
</g>
<rect x="157.964" y="314.779" fill="#EEEEEE" width="231.524" height="11.221"/>
<g>
	<path fill="#23286B" d="M269.022,35.84c-0.367,0-0.671-0.292-0.683-0.66c-0.013-0.377,0.284-0.695,0.661-0.71
		c9.078-0.314,17.429-8.217,18.231-17.26c0.033-0.375,0.381-0.641,0.743-0.621c0.377,0.033,0.656,0.367,0.621,0.742
		c-0.876,9.866-9.644,18.168-19.547,18.509C269.039,35.84,269.03,35.84,269.022,35.84z"/>
</g>
<linearGradient id="SVGID_4_" gradientUnits="userSpaceOnUse" x1="1343.7762" y1="1785.3802" x2="2115.1497" y2="1785.3802" gradientTransform="matrix(0.2543 0 0 0.2543 -148.3943 -199.0443)">
	<stop offset="0" style="stop-color:#D6D7D8"/>
	<stop offset="1" style="stop-color:#EEEEEE"/>
</linearGradient>
<rect x="193.328" y="183.956" fill="url(#SVGID_4_)" width="196.16" height="142.044"/>
<rect x="277.698" y="245.587" fill="#FFFFFF" width="29.365" height="29.348"/>
<linearGradient id="SVGID_5_" gradientUnits="userSpaceOnUse" x1="1970.3204" y1="1746.0508" x2="2156.4856" y2="1746.0508" gradientTransform="matrix(0.2543 0 0 0.2543 -148.3943 -199.0443)">
	<stop offset="0" style="stop-color:#FFBEB6"/>
	<stop offset="1" style="stop-color:#F2A19C"/>
</linearGradient>
<path fill="url(#SVGID_5_)" d="M355.246,283.126c3.569,6.242,29.765-8.913,34.699-14.145c-0.148,6.988-10.502,11.865-11.43,14.532
	c-0.815,2.34,4.849,0.57,6.932-0.774c10.236-6.604,14.805-20.652,14.543-32.922c-0.087-4.091-1.455-6.188-2.739-10.038
	c-4.109-12.32-4.565-39.699-7.413-33.607c-3.057,8.091-5.81,21.825-1.719,29.044c-14.815,10.528-24.034,21.725-33.873,37.001
	c-1.432,2.226-2.564,5.695-0.306,7.076c7.045-6.645,14.089-13.29,21.134-19.936c4.442-4.19,8.708-9.672,13.501-5.889
	C382.227,260.849,353.421,279.931,355.246,283.126z"/>
<path id="texture_13_" fill="#FFFFFF" d="M210.99,239.551c0.103,0.382,0.414,0.625,0.795,0.523l0,0
	c0.382-0.103,0.626-0.413,0.524-0.795l0,0c-0.103-0.382-0.414-0.625-0.795-0.523l0,0
	C211.131,238.859,210.887,239.169,210.99,239.551L210.99,239.551z M236.455,300.637c-0.244,0.311-0.141,0.693,0.17,0.937
	c0.311,0.244,0.693,0.141,0.937-0.17l0,0c0.244-0.311,0.141-0.693-0.17-0.937C237.116,300.05,236.699,300.325,236.455,300.637
	L236.455,300.637L236.455,300.637z M245.173,286.177c-0.244,0.311-0.141,0.693,0.17,0.937c0.311,0.244,0.693,0.141,0.937-0.17l0,0
	c0.244-0.311,0.141-0.693-0.17-0.937l0,0C245.971,285.799,245.417,285.865,245.173,286.177L245.173,286.177z M215.569,271.141
	c0.311,0.244,0.657,0.314,1.039,0.211c0.244-0.311,0.314-0.657,0.211-1.039c-0.311-0.244-0.657-0.314-0.867-0.177
	C215.364,270.379,215.292,270.726,215.569,271.141z M229.335,261.135c0.311,0.244,0.657,0.314,1.039,0.211
	c0.244-0.311,0.314-0.657,0.211-1.039c-0.311-0.244-0.657-0.314-0.867-0.177C229.129,260.372,229.024,260.891,229.335,261.135
	L229.335,261.135z M270.256,304.802c-0.07,0.347,0.206,0.764,0.552,0.834c0.347,0.07,0.764-0.206,0.834-0.551l0,0
	c0.07-0.347-0.206-0.764-0.552-0.834l0,0C270.742,304.179,270.327,304.455,270.256,304.802z M272.946,288.035
	c-0.07,0.347,0.206,0.764,0.552,0.834c0.347,0.07,0.764-0.206,0.834-0.551c0.07-0.347-0.206-0.764-0.552-0.834l0,0
	C273.434,287.412,273.016,287.689,272.946,288.035L272.946,288.035L272.946,288.035z M206.25,257.524
	c0.138,0.208,0.624,0.487,0.867,0.177c0.208-0.138,0.488-0.623,0.177-0.867c-0.138-0.208-0.624-0.487-0.867-0.177l0,0
	C206.044,256.761,205.973,257.107,206.25,257.524L206.25,257.524z M219.211,249.699c0.138,0.208,0.624,0.487,0.867,0.177
	c0.208-0.138,0.452-0.449,0.177-0.867c-0.138-0.208-0.45-0.451-0.867-0.177l0,0C219.142,249.145,219.072,249.491,219.211,249.699
	L219.211,249.699L219.211,249.699z M256.9,295.053c-0.07,0.347,0.033,0.728,0.38,0.798c0.347,0.07,0.555-0.067,0.798-0.379l0,0
	c0.07-0.347-0.033-0.728-0.38-0.798l0,0C257.352,294.604,256.97,294.707,256.9,295.053L256.9,295.053z M260.589,280.473
	c-0.07,0.347,0.033,0.728,0.38,0.798c0.347,0.07,0.555-0.067,0.798-0.379l0,0c0.07-0.347-0.033-0.728-0.38-0.798l0,0
	C261.041,280.025,260.66,280.127,260.589,280.473L260.589,280.473z M231.373,274.174c-0.244,0.311-0.141,0.693,0.17,0.937
	c0.311,0.244,0.693,0.141,0.937-0.17c0.244-0.311,0.141-0.693-0.17-0.937C232,273.76,231.617,273.863,231.373,274.174
	L231.373,274.174z M198.539,271.467c-0.244,0.311-0.141,0.693,0.17,0.937c0.311,0.244,0.693,0.141,0.937-0.17
	c0.244-0.311,0.141-0.693-0.17-0.937C199.165,271.054,198.783,271.157,198.539,271.467L198.539,271.467z M208.955,257.533
	c-0.244,0.311-0.141,0.693,0.17,0.937c0.311,0.244,0.693,0.141,0.937-0.17s0.141-0.693-0.17-0.937
	C209.581,257.119,209.199,257.222,208.955,257.533L208.955,257.533z M219.232,243.392c-0.244,0.311-0.141,0.693,0.17,0.937
	c0.311,0.244,0.693,0.141,0.937-0.17c0.244-0.311,0.141-0.693-0.17-0.937C219.823,243.15,219.44,243.253,219.232,243.392z
	 M269.542,289.688c0.103,0.382,0.414,0.625,0.795,0.523c0.382-0.103,0.626-0.413,0.524-0.795c-0.103-0.382-0.414-0.625-0.795-0.523
	C269.719,288.821,269.439,289.305,269.542,289.688L269.542,289.688z M209.906,220.936c-0.418,0.277-0.488,0.623-0.211,1.039
	 M233.02,279.378c-0.07,0.347,0.206,0.764,0.551,0.834c0.347,0.07,0.764-0.206,0.834-0.551s-0.206-0.764-0.551-0.834l0,0
	C233.508,278.757,233.092,279.031,233.02,279.378L233.02,279.378L233.02,279.378z M221.09,279.478
	c-0.07,0.347,0.206,0.764,0.551,0.834c0.347,0.07,0.764-0.206,0.834-0.551c0.07-0.347-0.033-0.728-0.551-0.834
	C221.578,278.857,221.162,279.132,221.09,279.478L221.09,279.478z M225.931,262.788c-0.07,0.347,0.206,0.764,0.551,0.834
	c0.347,0.07,0.728-0.033,0.834-0.551c0.07-0.347-0.206-0.764-0.517-1.008C226.419,262.165,226.001,262.441,225.931,262.788
	L225.931,262.788z M204.431,240.744c-0.244,0.311-0.141,0.693,0.17,0.937l0,0c0.311,0.244,0.693,0.141,1.111-0.136
	c0.244-0.311,0.141-0.693-0.136-1.111C205.057,240.329,204.675,240.431,204.431,240.744L204.431,240.744z M211.268,239.067
	c-0.07,0.347,0.067,0.554,0.206,0.764c0.347,0.07,0.555-0.067,0.764-0.206c0.07-0.347-0.067-0.554-0.206-0.764l0,0
	C211.686,238.792,211.304,238.894,211.268,239.067L211.268,239.067L211.268,239.067z"/>
</svg>